<?xml version="1.0" encoding="UTF-8"?><svg id="Layer_2" xmlns="http://www.w3.org/2000/svg" viewBox="0 0 206.81 206.81"><defs><style>.cls-1{fill:none;}.cls-1,.cls-2{stroke-width:0px;}.cls-2{fill:#111317;}</style></defs><g id="Layer_1-2"><rect class="cls-1" width="206.81" height="206.81"/><path class="cls-2" d="M206.81,51.35l-1.09,2.4-.53,1.18-44.67,97.48-.65,1.41-.28.63-.46,1h-44.07l-.45-1.01-.38-.84-16.49-36.31-.32-.7-1.74-3.82-1.66,3.86-.06.14-17.17,37.56-.07.15-.45.98h-43.88l-.45-1.01-.32-.7L.89,86.77l-.1-.21-.8-1.76,1.94-.14h.06s.43-.04.43-.04c9.94-.63,19.63-1.37,29.03-2.24l.99-.08.43.91,19.65,44.96.27.62c.04.1.1.19.16.27l1.79,3.75,1.68-4.25,23.24-50.21.36-.78c.2-.43.62-.73,1.09-.8,9.76-1.31,19.05-2.74,27.84-4.17h.04c.12.14.19.27.27.43l1.91,4.08,21.2,45.72.08.18,4.53,9.81,1.7-3.89.86-1.98,28.48-65.55.04-.09.15-.32.09-.18.21-.43.45-.12.97-.25,33.49-7.91h.07s.38-.1.38-.1h0l2.93-.64Z"/></g></svg>