<?xml version="1.0" encoding="UTF-8"?><svg id="Layer_2" xmlns="http://www.w3.org/2000/svg" viewBox="0 0 860.08 191.59"><defs><style>.cls-1{fill:#111317;stroke-width:0px;}</style></defs><g id="Layer_1-2"><g id="Original_-_text"><path class="cls-1" d="M416.9,97.54l-10.37-31.51c-3.45-10.27-6.75-20.14-10.05-30.41h-.31c-3.3,10.27-6.6,20.14-10.05,30.41l-10.37,31.51h-13.98l-23.08-69.59h10.05l9.74,30.14c3.46,10.41,6.91,21.37,10.21,31.78h.31l9.89-30.82,10.05-31.1h14.76l10.05,31.1,9.89,30.82h.31c3.3-10.41,6.75-21.37,10.21-31.78l9.74-30.14h10.05l-23.08,69.59h-13.98Z"/><path class="cls-1" d="M465.11,12.05V0h9.74v12.05h-9.74ZM465.11,97.54V27.95h9.74v69.59h-9.74Z"/><path class="cls-1" d="M497.78,97.54V0h9.74v97.54h-9.74Z"/><path class="cls-1" d="M583.37,97.54v-10.55h-.31c-4.08,7.26-13.66,12.06-25.13,12.06-20.57,0-33.61-14.25-33.61-36.44s13.03-36.44,33.61-36.44c11.46,0,21.04,4.79,25.13,12.06h.31V0h9.74v97.54h-9.74ZM534.53,62.61c0,17.81,9.74,29.32,24.97,29.32s24.34-11.51,24.34-29.32-9.58-29.32-24.34-29.32-24.97,11.51-24.97,29.32Z"/><path class="cls-1" d="M418.15,145.15h-18.69c-.79-9.04-7.54-14.93-17.27-14.93-12.56,0-19.94,9.32-19.94,24.52s7.38,24.52,19.94,24.52c9.74,0,16.33-6.71,17.12-16.17h18.84c-1.57,16.85-15.39,28.49-35.96,28.49-23.56,0-38.79-14.25-38.79-36.85s15.23-36.85,38.79-36.85c20.41,0,34.39,11.37,35.96,27.26Z"/><path class="cls-1" d="M475,119.67v13.84c-2.2-.41-4.24-.55-6.28-.55-14.29,0-22.14,7.95-22.14,22.47v34.11h-17.9v-69.59h16.65v10.27h.31c5.34-7.53,12.88-11.23,22.77-11.23,2.04,0,4.56.27,6.6.69Z"/><path class="cls-1" d="M530.6,168.58h18.37c-2.98,12.47-15.86,23.01-36.75,23.01-24.34,0-38.63-15.21-38.63-37.67,0-20.55,14.13-36.03,38.32-36.03,18.22,0,31.41,9.18,35.8,23.7,1.57,4.38,2.2,9.59,2.2,16.3h-58.58c.63,15.75,9.74,22.19,20.89,22.19,10.21,0,16.8-4.79,18.37-11.51ZM491.65,147.62h40.36c-1.26-12.19-9.42-18.22-20.1-18.22s-18.69,6.16-20.26,18.22Z"/><path class="cls-1" d="M623.73,145.15v26.03c0,8.22.78,13.97,2.04,18.36h-16.18c-.78-3.01-1.1-6.44-1.1-9.73h-.31c-5.81,7.4-14.76,11.23-26.85,11.23-16.65,0-27.01-8.77-27.01-20.69s7.7-18.77,30.62-21.92c6.44-.96,15.86-1.78,21.52-2.06v-2.74c0-10.27-6.44-14.38-15.55-14.38-9.89,0-15.23,4.79-15.7,12.19h-17.59c.79-13.15,11.78-23.56,33.29-23.56s32.82,9.04,32.82,27.26ZM606.45,156.52c-5.34.27-13.04.96-18.37,1.78-11.46,1.64-15.7,4.66-15.7,10.96s5.03,10.27,14.13,10.27c5.5,0,10.84-1.51,14.45-4.66,4.24-3.84,5.5-7.54,5.5-14.93v-3.42Z"/><path class="cls-1" d="M675.4,176.94v12.19c-2.67.69-6.75,1.23-10.05,1.23-16.8,0-24.19-6.17-24.19-21.37v-37.12h-13.35v-11.92h13.35v-17.4h17.9v17.4h15.55v11.92h-15.55v34.8c0,7.81,2.98,10.96,10.84,10.96,2.04,0,4.24-.27,5.5-.69Z"/><path class="cls-1" d="M684.82,106.93v-14.93h17.9v14.93h-17.9ZM684.82,189.54v-69.59h17.9v69.59h-17.9Z"/><path class="cls-1" d="M734.76,189.54l-27.8-69.59h18.69l10.36,28.36c3.77,10.14,7.07,20.14,10.21,30.41h.31c3.14-10.27,6.44-20.28,10.21-30.41l10.37-28.36h18.69l-27.8,69.59h-23.24Z"/><path class="cls-1" d="M840.77,168.58h18.37c-2.98,12.47-15.86,23.01-36.75,23.01-24.34,0-38.63-15.21-38.63-37.67,0-20.55,14.13-36.03,38.32-36.03,18.22,0,31.41,9.18,35.81,23.7,1.57,4.38,2.2,9.59,2.2,16.3h-58.58c.63,15.75,9.74,22.19,20.89,22.19,10.21,0,16.8-4.79,18.37-11.51ZM801.82,147.62h40.36c-1.26-12.19-9.42-18.22-20.1-18.22s-18.69,6.16-20.26,18.22Z"/></g><path class="cls-1" d="M319.11,30.89l-1.68,3.71-.82,1.82-68.93,150.42-1,2.18-.44.97-.71,1.55h-68l-.7-1.56-.59-1.3-25.44-56.02-.49-1.08-2.69-5.89-2.56,5.95-.09.21-26.49,57.95-.1.23-.69,1.51H49.99l-.7-1.56-.49-1.08L1.38,85.55l-.15-.33-1.23-2.72,2.99-.21h.09s.67-.06.67-.06c15.33-.97,30.28-2.11,44.8-3.45l1.53-.12.67,1.4,30.32,69.37.41.95c.07.15.15.29.24.41l2.76,5.78,2.6-6.56,35.87-77.47.56-1.2c.31-.67.95-1.13,1.69-1.23,15.07-2.02,29.4-4.23,42.96-6.44h.06c.18.21.3.41.41.66l2.94,6.3,32.72,70.54.13.28,6.98,15.14,2.62-6.01,1.33-3.06,43.94-101.14.07-.14.23-.5.14-.28.32-.66.69-.18,1.5-.39,51.67-12.2.1-.02.59-.13h.01l4.51-.99Z"/></g></svg>